<?xml version="1.0" encoding="iso-8859-1"?>
<!-- Generator: Adobe Illustrator 18.0.0, SVG Export Plug-In . SVG Version: 6.00 Build 0)  -->
<!DOCTYPE svg PUBLIC "-//W3C//DTD SVG 1.1//EN" "http://www.w3.org/Graphics/SVG/1.1/DTD/svg11.dtd">
<svg version="1.1" id="Capa_1" xmlns="http://www.w3.org/2000/svg" xmlns:xlink="http://www.w3.org/1999/xlink" x="0px" y="0px"
	 viewBox="0 0 490 490" style="enable-background:new 0 0 490 490;" xml:space="preserve">
<g>
	<path d="M212.052,315.613c-0.602-0.688-1.53-0.992-2.423-0.793l-82.282,18.293c-0.948,0.211-1.688,0.951-1.898,1.898
		L96.217,466.924c-0.164,0.74,0.017,1.516,0.491,2.107c0.475,0.59,1.192,0.934,1.95,0.934h56.575c1.049,0,1.987-0.654,2.348-1.641
		l54.939-150.205C212.833,317.26,212.654,316.299,212.052,315.613z"/>
	<g>
		<path d="M314.897,20.035c-30.631,0-55.552,24.922-55.552,55.553c0,29.719,51.307,107.312,53.488,110.601
			c0.459,0.689,1.235,1.104,2.064,1.104c0.828,0,1.602-0.414,2.063-1.104c2.182-3.289,53.488-80.883,53.488-110.601
			C370.448,44.957,345.527,20.035,314.897,20.035z M314.896,47.375c15.511,0,28.127,12.619,28.127,28.129
			s-12.616,28.127-28.127,28.127c-15.512,0-28.126-12.617-28.126-28.127S299.384,47.375,314.896,47.375z"/>
		<g>
			<path d="M95.272,339.035L1.938,359.783C0.805,360.035,0,361.041,0,362.199v90.133c0,9.723,7.91,17.633,17.632,17.633h50.245
				c1.161,0,2.165-0.807,2.417-1.939l27.931-126.039c0.183-0.826-0.068-1.689-0.668-2.287
				C96.96,339.102,96.097,338.852,95.272,339.035z"/>
			<path d="M472.368,154.785H459.06c-0.966,0-1.848,0.561-2.251,1.439l-43.903,95.355c-0.552,1.197-0.069,2.617,1.1,3.229
				l72.371,37.938c0.36,0.189,0.754,0.283,1.148,0.283c0.444,0,0.888-0.119,1.28-0.357c0.743-0.447,1.195-1.252,1.195-2.117V172.418
				C490,162.695,482.091,154.785,472.368,154.785z"/>
			<path d="M1.227,200.256c6.436,3.76,13.599,5.75,20.714,5.75c8.039,0,15.552-2.516,21.73-7.274
				c12.33-9.494,16.978-26.07,11.842-42.223c-0.327-1.027-1.281-1.725-2.358-1.725H17.632C7.91,154.785,0,162.695,0,172.418v25.701
				C0,198.998,0.467,199.813,1.227,200.256z"/>
			<path d="M208.297,285.902c0.29-0.666,0.284-1.416,0.01-2.088L156.004,156.32c-0.38-0.93-1.286-1.535-2.289-1.535H84.289
				c-0.731,0-1.425,0.322-1.896,0.883c-0.47,0.561-0.67,1.299-0.542,2.02c4.162,23.723-4.536,47.15-22.702,61.143
				c-10.655,8.205-23.521,12.541-37.209,12.541c-6.282,0-12.591-0.941-18.751-2.799c-0.748-0.227-1.562-0.084-2.189,0.383
				C0.369,229.422,0,230.158,0,230.941c0,0,0,74.951,0,100.002c0,0.959,0.346,1.656,0.926,2.133c0.512,0.42,1.277,0.685,2.492,0.395
				l202.873-46.242C207.469,286.965,208.031,286.512,208.297,285.902z"/>
			<path d="M488.97,342.256c0,0-64.535-46.457-86.056-61.93c-0.602-0.434-1.358-0.572-2.078-0.385
				c-0.712,0.189-1.307,0.688-1.613,1.357l-85.251,185.156c-0.354,0.766-0.294,1.66,0.165,2.369
				c0.454,0.711,1.238,1.141,2.081,1.141h156.15c9.723,0,17.632-7.91,17.632-17.633V344.264
				C490,343.467,489.618,342.721,488.97,342.256z"/>
			<path d="M370.748,279.199c-0.592-0.732-1.543-1.066-2.464-0.861c0,0-91.55,20.365-122.069,27.139
				c-0.824,0.184-1.496,0.773-1.787,1.566c-14.641,39.883-58.374,159.598-58.374,159.598c-0.276,0.758-0.166,1.605,0.296,2.268
				c0.462,0.662,1.22,1.057,2.028,1.057h94.466c0.966,0,1.843-0.563,2.246-1.439c21.485-46.689,85.98-186.738,85.98-186.738
				C371.466,280.934,371.34,279.93,370.748,279.199z"/>
			<path d="M235.384,279.15c0.741,2.549,2.694,2.143,3.837,1.897l146.071-32.475c0.752-0.166,1.387-0.678,1.708-1.381
				c0,0,30.705-66.67,40.933-88.898c0.352-0.764,0.289-1.658-0.165-2.369c-0.455-0.711-1.238-1.139-2.086-1.139
				c0,0-48.723,0-64.963,0c-0.891,0-1.692,0.49-2.151,1.256c-14.932,24.852-43.671,69.492-43.671,69.492
				s-28.961-44.986-43.672-69.492c-0.459-0.766-1.261-1.256-2.151-1.256c-16.241,0-64.966,0-64.966,0
				c-0.773,0-1.501,0.361-1.969,0.977c-0.468,0.615-0.622,1.414-0.418,2.16L235.384,279.15z"/>
		</g>
	</g>
</g>
<g>
</g>
<g>
</g>
<g>
</g>
<g>
</g>
<g>
</g>
<g>
</g>
<g>
</g>
<g>
</g>
<g>
</g>
<g>
</g>
<g>
</g>
<g>
</g>
<g>
</g>
<g>
</g>
<g>
</g>
</svg>
