<?xml version="1.0" encoding="iso-8859-1"?>
<!-- Generator: Adobe Illustrator 19.0.0, SVG Export Plug-In . SVG Version: 6.00 Build 0)  -->
<svg version="1.1" id="Capa_1" xmlns="http://www.w3.org/2000/svg" xmlns:xlink="http://www.w3.org/1999/xlink" x="0px" y="0px"
	 viewBox="0 0 490 490" style="enable-background:new 0 0 490 490;" xml:space="preserve">
<g>
	<path d="M199.807,108.431l-89.625,45.654v223.936l89.875-56.019l89.876,56.019l89.875-53.945V108.431l-89.875,58.092
		L199.807,108.431z M140.807,322.793V172.91l43.945-22.385v144.877l-0.87,0.542L140.807,322.793z M215.377,295.411V154.955
		l57.987,37.377l1.917,1.235V332.75l-59.048-36.805L215.377,295.411z M349.183,164.743v141.942l-43.277,25.975V192.716l0.627-0.406
		L349.183,164.743z"/>
	<path d="M245,0C109.909,0,0,109.906,0,245s109.909,245,245,245s245-109.906,245-245S380.091,0,245,0z M245,459.313
		c-118.208,0-214.375-96.136-214.375-214.313S126.792,30.687,245,30.687S459.375,126.823,459.375,245S363.208,459.313,245,459.313z"
		/>
</g>
<g>
</g>
<g>
</g>
<g>
</g>
<g>
</g>
<g>
</g>
<g>
</g>
<g>
</g>
<g>
</g>
<g>
</g>
<g>
</g>
<g>
</g>
<g>
</g>
<g>
</g>
<g>
</g>
<g>
</g>
</svg>
